<svg width="26" height="20" viewBox="0 0 26 20" fill="none" xmlns="http://www.w3.org/2000/svg">
<path fill-rule="evenodd" clip-rule="evenodd" d="M23.7934 18H7.78216L2.28776 10L7.78216 2H23.7934V18ZM24.7807 0H7.26678C6.94393 0 6.64082 0.16 6.4562 0.429L0.274632 9.429C0.0386643 9.772 0.0386643 10.228 0.274632 10.571L6.4562 19.571C6.64082 19.84 6.94393 20 7.26678 20H24.7807C25.3257 20 25.768 19.552 25.768 19V1C25.768 0.448 25.3257 0 24.7807 0ZM10.754 13.957C10.9465 14.152 11.1992 14.25 11.452 14.25C11.7048 14.25 11.9575 14.152 12.15 13.957L14.6608 11.414L17.1715 13.957C17.364 14.152 17.6168 14.25 17.8695 14.25C18.1223 14.25 18.375 14.152 18.5676 13.957C18.9536 13.566 18.9536 12.934 18.5676 12.543L16.0568 10L18.5676 7.457C18.9536 7.066 18.9536 6.434 18.5676 6.043C18.1815 5.652 17.5575 5.652 17.1715 6.043L14.6608 8.586L12.15 6.043C11.764 5.652 11.14 5.652 10.754 6.043C10.3679 6.434 10.3679 7.066 10.754 7.457L13.2647 10L10.754 12.543C10.3679 12.934 10.3679 13.566 10.754 13.957Z" fill="#242E42"/>
</svg>
